<svg width="32" height="32" viewBox="0 0 32 32" fill="none" xmlns="http://www.w3.org/2000/svg">
<path id="Vector" d="M15.5991 0.289551C12.5414 0.289551 9.55241 1.19626 7.01003 2.89502C4.46766 4.59379 2.48611 7.0083 1.31599 9.83324C0.145859 12.6582 -0.1603 15.7667 0.436226 18.7656C1.03275 21.7645 2.50517 24.5192 4.66728 26.6813C6.8294 28.8435 9.5841 30.3159 12.583 30.9124C15.582 31.5089 18.6905 31.2028 21.5154 30.0326C24.3403 28.8625 26.7548 26.881 28.4536 24.3386C30.1524 21.7962 31.0591 18.8072 31.0591 15.7495C31.0591 11.6493 29.4303 7.71697 26.531 4.81767C23.6317 1.91836 19.6994 0.289551 15.5991 0.289551ZM13.3906 21.9224L7.86915 16.401L9.62496 14.6452L13.3906 18.4108L21.5733 10.2281L23.3357 11.9795L13.3906 21.9224Z" fill="#106682"/>
</svg>
