<svg width="25" height="25" viewBox="0 0 25 25" fill="none" xmlns="http://www.w3.org/2000/svg">
<g id="ant-design:instagram-outlined">
<path id="Vector" d="M12.8632 7.5003C10.1726 7.5003 8.00125 9.67169 8.00125 12.3622C8.00125 15.0528 10.1726 17.2241 12.8632 17.2241C15.5537 17.2241 17.7251 15.0528 17.7251 12.3622C17.7251 9.67169 15.5537 7.5003 12.8632 7.5003ZM12.8632 15.5221C11.1232 15.5221 9.70327 14.1022 9.70327 12.3622C9.70327 10.6223 11.1232 9.20233 12.8632 9.20233C14.6031 9.20233 16.0231 10.6223 16.0231 12.3622C16.0231 14.1022 14.6031 15.5221 12.8632 15.5221ZM17.9242 6.16807C17.296 6.16807 16.7887 6.67536 16.7887 7.30355C16.7887 7.93173 17.296 8.43902 17.9242 8.43902C18.5524 8.43902 19.0597 7.9341 19.0597 7.30355C19.0599 7.15438 19.0306 7.00664 18.9736 6.8688C18.9166 6.73095 18.833 6.6057 18.7275 6.50023C18.6221 6.39475 18.4968 6.31112 18.359 6.25412C18.2211 6.19712 18.0734 6.16788 17.9242 6.16807ZM22.3405 12.3622C22.3405 11.0537 22.3523 9.75703 22.2788 8.45087C22.2054 6.93374 21.8593 5.58729 20.7499 4.47789C19.6381 3.36612 18.294 3.0224 16.7769 2.94891C15.4684 2.87543 14.1717 2.88728 12.8655 2.88728C11.557 2.88728 10.2603 2.87543 8.95419 2.94891C7.43706 3.0224 6.09061 3.36849 4.98121 4.47789C3.86944 5.58966 3.52572 6.93374 3.45223 8.45087C3.37875 9.7594 3.3906 11.0561 3.3906 12.3622C3.3906 13.6684 3.37875 14.9674 3.45223 16.2736C3.52572 17.7907 3.87181 19.1371 4.98121 20.2465C6.09298 21.3583 7.43706 21.702 8.95419 21.7755C10.2627 21.849 11.5594 21.8372 12.8655 21.8372C14.1741 21.8372 15.4707 21.849 16.7769 21.7755C18.294 21.702 19.6405 21.3559 20.7499 20.2465C21.8616 19.1348 22.2054 17.7907 22.2788 16.2736C22.3547 14.9674 22.3405 13.6707 22.3405 12.3622ZM20.2544 17.9519C20.0814 18.3833 19.8728 18.7057 19.5385 19.0376C19.2043 19.3718 18.8843 19.5804 18.4528 19.7535C17.2059 20.2489 14.2452 20.1375 12.8632 20.1375C11.4812 20.1375 8.51802 20.2489 7.27113 19.7559C6.83969 19.5828 6.5173 19.3742 6.18543 19.04C5.85119 18.7057 5.64259 18.3857 5.46954 17.9543C4.97647 16.705 5.08789 13.7442 5.08789 12.3622C5.08789 10.9802 4.97647 8.01707 5.46954 6.77018C5.64259 6.33875 5.85119 6.01636 6.18543 5.68448C6.51968 5.35261 6.83969 5.14164 7.27113 4.96859C8.51802 4.47552 11.4812 4.58694 12.8632 4.58694C14.2452 4.58694 17.2083 4.47552 18.4552 4.96859C18.8866 5.14164 19.209 5.35024 19.5409 5.68448C19.8751 6.01873 20.0838 6.33875 20.2568 6.77018C20.7499 8.01707 20.6385 10.9802 20.6385 12.3622C20.6385 13.7442 20.7499 16.705 20.2544 17.9519Z" fill="white"/>
</g>
</svg>
