<svg width="131" height="42" viewBox="0 0 131 42" fill="none" xmlns="http://www.w3.org/2000/svg">
<g id="Components">
<g id="d2bf6d6f-18f3-457f-a34c-482cae858cbb_1">
<path id="Vector" d="M25.1837 10.4918V4.50351C25.1857 4.44691 25.1788 4.39311 25.1691 4.35901C25.1662 4.34441 25.1496 4.28871 25.1437 4.27501C25.0929 4.14411 24.9962 4.03571 24.8605 3.96541L18.8565 0.963507C18.6944 0.881507 18.4981 0.882407 18.336 0.963507L0.3194 9.97221C0.2686 9.99761 0.2217 10.0308 0.1573 10.0982C0.1182 10.1392 0.087 10.1851 0.0391 10.2906C0.0127 10.3609 0 10.4273 0 10.4918V37.5113C0 37.5328 0.0088 37.5894 0.0137 37.6109C0.0166 37.6285 0.0332 37.7007 0.0401 37.7173C0.0567 37.7622 0.0792 37.7954 0.0919 37.815C0.1017 37.8316 0.1446 37.8931 0.1583 37.9078C0.1935 37.9449 0.2296 37.9683 0.2394 37.9742C0.257 37.9908 0.2999 38.023 0.3224 38.0338L6.3536 41.0445C6.4317 41.0797 6.5108 41.0972 6.588 41.0972C6.6603 41.0972 6.7325 41.0816 6.753 41.065C6.7784 41.0621 6.8126 41.0523 6.836 41.0406L12.8428 38.2056C13.0449 38.1089 13.1758 37.9019 13.1758 37.6783V29.4488L18.3272 32.025C18.3584 32.0416 18.3848 32.0494 18.3887 32.0494C18.4024 32.0553 18.4473 32.0709 18.4619 32.0738C18.4912 32.0797 18.5283 32.0933 18.5293 32.0826C18.5557 32.0894 18.5996 32.0914 18.626 32.0885C18.6875 32.0856 18.749 32.0709 18.8115 32.0465C18.8271 32.0416 18.8427 32.0358 18.8564 32.0289L24.8603 29.0269C25.0595 28.9273 25.1835 28.7271 25.1835 28.5044V22.5005C25.1835 22.4351 25.1698 22.3667 25.1513 22.3198C25.1474 22.3052 25.1289 22.2612 25.123 22.2475C25.0976 22.1957 25.0673 22.1508 25.0078 22.0844C24.9619 22.0385 24.9111 22.0024 24.8603 21.9789L13.8964 16.4965L24.8603 11.0141C25.0595 10.9145 25.1837 10.7145 25.1837 10.4918ZM12.0079 28.8658V37.3082L7.171 39.5924V26.4469L12.0079 28.8658ZM24.0167 23.4449V28.1441L19.1798 30.563V25.8628L24.0167 23.4449ZM6.3272 20.0201L18.0127 25.8629V30.5631L6.8477 24.9811C6.6651 24.8883 6.4522 24.8981 6.2813 25.0065C6.1104 25.111 6.004 25.3014 6.004 25.5026V39.569L1.1671 37.151V11.4361L6.004 13.855V19.4986C6.004 19.7203 6.128 19.9205 6.3272 20.0201ZM6.5879 12.8424L1.8877 10.4918L18.5958 2.13831L23.296 4.48791L6.5879 12.8424ZM12.3311 15.9742C12.2793 15.9996 12.2325 16.0338 12.1836 16.0806L12.1865 16.0835C12.1728 16.0952 12.1611 16.1069 12.1543 16.1147C12.1211 16.1528 12.0928 16.1958 12.0908 16.2075C12.081 16.2202 12.0537 16.2798 12.0459 16.2954C12.0254 16.352 12.0137 16.4106 12.0156 16.4311C12.0107 16.4506 12.0088 16.4887 12.0088 16.5082C12.0108 16.5707 12.0225 16.6322 12.042 16.682C12.0449 16.6927 12.0615 16.7328 12.0664 16.7435C12.0869 16.7884 12.1143 16.8314 12.1338 16.8499C12.1445 16.8685 12.1631 16.8938 12.1777 16.9085C12.1855 16.9173 12.1953 16.9251 12.205 16.9319C12.2441 16.968 12.287 16.9964 12.331 17.0178L23.2958 22.5002L18.5956 24.8498L7.1708 19.1379V13.8547L24.0167 5.43221V10.1314L12.3311 15.9742Z" fill="#009779"/>
<path id="Vector_2" d="M37.1487 13.7441H46.0389V16.788H40.7008V19.8326H45.125V22.8772H40.7008V28.2557H37.1487V13.7441Z" fill="#FDFFFC"/>
<path id="Vector_3" d="M54.2801 13.5005C58.664 13.5005 61.8707 16.7475 61.8707 20.9084C61.8707 25.1705 58.664 28.499 54.2801 28.499C49.8962 28.499 46.6895 25.1706 46.6895 20.9084C46.6895 16.7475 49.8962 13.5005 54.2801 13.5005ZM54.2801 25.252C56.4519 25.252 58.1968 23.3846 58.1968 20.9085C58.1968 18.5336 56.4519 16.7476 54.2801 16.7476C52.1083 16.7476 50.3627 18.5336 50.3627 20.9085C50.3627 23.3847 52.1083 25.252 54.2801 25.252Z" fill="#FDFFFC"/>
<path id="Vector_4" d="M63.2687 13.7441H66.8208V25.211H72.7471V28.2556H63.2686L63.2687 13.7441Z" fill="#FDFFFC"/>
<path id="Vector_5" d="M74.48 13.7441H78.0321V28.2556H74.48V13.7441Z" fill="#FDFFFC"/>
<path id="Vector_6" d="M87.0093 13.5005C91.3932 13.5005 94.5999 16.7475 94.5999 20.9084C94.5999 25.1705 91.3932 28.499 87.0093 28.499C82.6254 28.499 79.4187 25.1706 79.4187 20.9084C79.4187 16.7475 82.6254 13.5005 87.0093 13.5005ZM87.0093 25.252C89.1811 25.252 90.926 23.3846 90.926 20.9085C90.926 18.5336 89.1811 16.7476 87.0093 16.7476C84.8375 16.7476 83.0919 18.5336 83.0919 20.9085C83.0919 23.3847 84.8375 25.252 87.0093 25.252Z" fill="#FDFFFC"/>
<path id="Vector_7" d="M96.7016 13.7441H100.558L102.669 19.8736C102.994 20.8066 103.4 22.2683 103.4 22.2683H103.44C103.44 22.2683 103.846 20.8065 104.171 19.8736L106.281 13.7441H110.138L111.315 28.2556H107.763L107.317 21.7205C107.235 20.624 107.317 19.2847 107.317 19.2847H107.276C107.276 19.2847 106.789 20.8066 106.464 21.7205L104.942 25.9218H101.897L100.375 21.7205C100.051 20.8066 99.5635 19.2847 99.5635 19.2847H99.5232C99.5232 19.2847 99.6039 20.624 99.5232 21.7205L99.0765 28.2556H95.5046L96.7016 13.7441Z" fill="#FDFFFC"/>
<path id="Vector_8" d="M112.73 13.7441H116.282V28.2556H112.73V13.7441Z" fill="#FDFFFC"/>
<path id="Vector_9" d="M121.77 21.0501L117.345 13.7441H121.385L122.967 16.7271C123.454 17.641 123.861 18.5945 123.861 18.5945H123.901C123.901 18.5945 124.287 17.6608 124.794 16.7271L126.398 13.7441H130.436L125.991 21.0501L130.416 28.2556H126.458L124.794 25.211C124.287 24.2978 123.901 23.4045 123.901 23.4045H123.861C123.861 23.4045 123.475 24.2978 122.967 25.211L121.303 28.2556H117.366L121.77 21.0501Z" fill="#FDFFFC"/>
</g>
</g>
</svg>
