<svg width="32" height="32" viewBox="0 0 32 32" fill="none" xmlns="http://www.w3.org/2000/svg">
<path id="Vector" d="M15.6792 0.289551C12.6215 0.289551 9.63249 1.19626 7.09011 2.89502C4.54773 4.59379 2.56619 7.0083 1.39606 9.83324C0.225937 12.6582 -0.0802219 15.7667 0.516304 18.7656C1.11283 21.7645 2.58525 24.5192 4.74736 26.6813C6.90948 28.8435 9.66418 30.3159 12.6631 30.9124C15.6621 31.5089 18.7705 31.2028 21.5955 30.0326C24.4204 28.8625 26.8349 26.881 28.5337 24.3386C30.2325 21.7962 31.1392 18.8072 31.1392 15.7495C31.1392 11.6493 29.5103 7.71697 26.611 4.81767C23.7117 1.91836 19.7794 0.289551 15.6792 0.289551ZM13.4706 21.9224L7.94922 16.401L9.70503 14.6452L13.4706 18.4108L21.6534 10.2281L23.4158 11.9795L13.4706 21.9224Z" fill="#1DA1CB"/>
</svg>
